<svg xmlns="http://www.w3.org/2000/svg" viewBox="187 299 1923 1320" role="img" aria-label="Chronos logo">
<g transform="translate(0.000000,1911.000000) scale(0.100000,-0.100000)" fill="currentColor" stroke="none"><path d="M16690 16107 l-35 -13 -2372 -1158 -2372 -1158 -44 -44 -45 -44 -22
-46 -22 -47 -9 -57 -9 -57 10 -54 10 -53 20 -41 20 -40 1540 -2130 1540 -2130
36 -32 36 -32 46 -23 47 -22 95 -1 95 0 56 26 57 27 41 41 40 40 20 39 20 39
826 3294 827 3294 -4 76 -5 77 -26 55 -27 55 -46 42 -45 42 -47 21 -47 21 -85
3 -85 3 -35 -13z m207 -126 l38 -19 26 -29 27 -28 18 -35 18 -35 -1 -55 0 -55
-822 -3275 -822 -3275 -25 -37 -24 -38 -38 -24 -37 -25 -44 -11 -44 -12 -36 7
-35 7 -36 18 -35 18 -26 29 -26 28 -1528 2115 -1528 2115 -18 40 -19 40 0 46
0 45 26 52 26 53 32 23 31 24 2330 1138 2330 1137 55 24 55 24 47 -5 47 -5 38
-20z"/>
<path d="M7484 16091 l-30 -8 -53 -29 -54 -29 -33 -43 -33 -43 -15 -42 -16
-42 -530 -3272 -530 -3272 0 -55 0 -55 21 -56 21 -56 48 -49 49 -48 56 -21 56
-21 2292 0 2292 0 37 10 37 11 47 32 48 32 33 46 33 47 15 63 14 64 46 3115
46 3115 2 185 2 185 -33 67 -33 67 -37 31 -36 30 -46 22 -45 23 -1820 2 -1820
1 -31 -7z m3681 -134 l39 -22 31 -43 30 -44 3 -96 3 -97 -50 -3213 -50 -3213
-19 -42 -19 -42 -36 -32 -36 -32 -38 -10 -38 -11 -2251 0 -2251 0 -34 11 -34
12 -33 24 -32 24 -19 37 -19 37 -6 30 -6 30 534 3295 535 3294 28 40 28 39 44
24 44 23 1806 0 1806 0 40 -23z"/>
<path d="M5510 8160 l0 -60 5990 0 5990 0 0 60 0 60 -5990 0 -5990 0 0 -60z"/>
<path d="M7010 7315 l0 -55 4485 0 4485 0 0 55 0 55 -4485 0 -4485 0 0 -55z"/>
<path d="M2745 6259 l-60 -9 -80 -20 -80 -21 -100 -49 -100 -49 -70 -54 -70
-53 -61 -72 -60 -73 -33 -54 -33 -54 -34 -80 -35 -80 -26 -98 -27 -98 0 -215
-1 -215 23 -88 22 -89 31 -76 30 -77 46 -74 46 -73 60 -65 61 -65 62 -44 62
-44 84 -39 83 -38 80 -21 80 -21 100 -12 100 -11 115 6 115 6 90 15 90 16 143
30 143 29 29 0 30 0 0 241 0 240 -10 -6 -10 -6 0 -23 0 -24 -26 -88 -25 -89
-32 -54 -32 -54 -58 -43 -57 -43 -78 -29 -77 -30 -85 -18 -85 -17 -120 0 -120
1 -78 21 -78 20 -67 36 -67 35 -52 42 -52 43 -51 64 -51 64 -36 71 -36 71 -23
69 -24 69 -15 72 -15 73 -10 118 -10 117 11 131 11 131 29 114 29 115 49 102
50 102 59 74 59 74 64 48 64 48 57 29 56 28 73 21 73 20 77 6 77 7 98 -13 98
-12 66 -20 65 -20 59 -31 59 -31 41 -42 42 -41 32 -60 32 -60 19 -83 20 -82 6
-6 5 -6 -2 220 -3 219 -50 6 -50 6 -135 36 -135 36 -95 16 -95 15 -115 -1
-115 -1 -60 -9z"/>
<path d="M8386 6259 l-59 -9 -74 -20 -74 -20 -63 -29 -63 -28 -55 -36 -56 -35
-71 -68 -72 -67 -58 -87 -58 -86 -32 -79 -33 -79 -25 -95 -25 -96 -5 -163 -6
-163 13 -92 12 -92 23 -80 24 -80 30 -68 30 -68 47 -72 46 -72 82 -80 83 -80
69 -41 69 -41 66 -26 66 -27 59 -15 59 -15 90 -11 90 -11 107 5 106 6 79 17
78 16 75 29 75 29 64 37 65 38 87 83 88 83 52 82 53 81 33 82 33 82 19 75 20
75 12 103 12 104 -6 110 -6 110 -16 84 -16 84 -34 93 -33 94 -36 65 -37 65
-59 74 -58 73 -74 58 -73 57 -70 36 -70 35 -70 24 -70 24 -90 14 -90 15 -110
-1 -110 -1 -59 -9z m381 -74 l81 -25 73 -48 74 -49 47 -51 48 -51 45 -71 46
-71 30 -72 30 -72 24 -90 23 -90 12 -114 13 -114 -6 -136 -6 -136 -16 -85 -16
-85 -26 -80 -26 -80 -37 -75 -38 -75 -47 -63 -48 -64 -59 -49 -60 -50 -67 -34
-68 -34 -64 -17 -64 -17 -100 0 -100 0 -65 16 -65 17 -75 37 -75 36 -91 91
-90 91 -51 100 -51 100 -25 80 -25 80 -17 100 -18 100 0 165 0 165 17 100 18
100 35 108 36 109 46 77 47 77 39 48 40 48 60 45 60 46 70 33 70 33 70 15 70
16 95 -5 95 -4 82 -26z"/>
<path d="M12448 6256 l-77 -14 -67 -22 -67 -21 -76 -38 -76 -39 -70 -55 -71
-55 -45 -53 -45 -54 -33 -48 -33 -49 -39 -82 -39 -83 -24 -93 -25 -92 -12
-101 -12 -102 7 -125 6 -125 19 -85 19 -85 31 -86 32 -85 43 -75 44 -74 50
-58 50 -59 56 -47 55 -47 63 -37 63 -37 75 -29 75 -29 85 -19 85 -18 165 1
165 1 100 27 100 26 83 40 82 39 44 30 44 30 55 51 56 51 50 68 51 68 39 79
40 79 24 75 25 76 16 94 16 94 0 136 0 137 -15 89 -16 89 -20 68 -20 67 -30
67 -30 68 -54 81 -54 81 -68 64 -68 64 -58 38 -58 39 -67 30 -67 30 -95 25
-95 25 -155 4 -155 3 -77 -13z m373 -61 l64 -17 65 -34 65 -34 52 -43 52 -42
54 -68 54 -68 41 -82 40 -82 26 -85 25 -85 17 -100 16 -100 0 -150 1 -150 -12
-80 -12 -80 -25 -94 -24 -93 -39 -83 -38 -82 -41 -60 -41 -60 -70 -65 -70 -65
-73 -36 -73 -37 -65 -17 -65 -16 -100 0 -100 0 -65 17 -65 18 -76 39 -77 40
-61 55 -61 55 -55 83 -55 83 -31 74 -30 74 -24 91 -23 90 -13 105 -12 104 6
155 6 155 21 98 20 97 31 83 30 83 46 80 46 79 76 76 76 76 65 35 65 36 53 17
52 17 48 8 47 9 86 -4 85 -3 65 -17z"/>
<path d="M14323 6249 l-51 -9 -79 -28 -79 -29 -42 -27 -43 -27 -39 -35 -39
-35 -31 -50 -32 -49 -19 -61 -19 -61 0 -77 0 -77 15 -59 16 -58 31 -59 31 -58
70 -67 71 -66 245 -162 246 -162 52 -44 53 -44 45 -60 45 -60 21 -68 21 -69
-4 -81 -4 -82 -28 -62 -29 -63 -47 -44 -47 -44 -41 -21 -41 -21 -63 -15 -63
-15 -65 0 -65 0 -70 15 -70 15 -71 35 -72 35 -37 41 -38 42 -32 71 -33 71 -13
58 -12 57 -9 0 -8 0 0 -234 0 -233 123 -7 122 -6 200 -6 200 -6 96 20 97 20
65 31 66 31 49 39 49 39 38 52 38 52 23 63 23 63 6 74 7 73 -16 75 -16 75 -36
74 -37 74 -81 85 -81 85 -264 175 -264 175 -62 61 -62 61 -26 50 -25 51 -11
57 -10 57 9 50 9 50 20 38 19 37 50 47 49 46 53 27 52 27 67 14 66 14 65 0 65
0 63 -15 62 -15 49 -24 48 -25 33 -37 33 -38 24 -52 24 -52 11 -59 10 -58 9
-20 8 -20 0 218 1 217 -37 0 -38 0 -120 15 -119 15 -136 -1 -135 -1 -52 -9z"/>
<path d="M3901 6207 l44 -23 28 -54 27 -54 0 -865 0 -866 -11 -38 -10 -38 -31
-35 -31 -35 -31 -14 -31 -13 270 -1 270 0 -37 19 -36 20 -21 26 -21 27 -15 50
-15 51 0 418 0 418 540 0 540 0 0 -439 0 -439 -28 -53 -27 -53 -45 -23 -45
-22 275 0 275 0 -43 21 -44 21 -23 36 -24 36 -10 45 -11 45 0 822 0 822 11 50
11 50 21 33 22 33 45 23 44 22 -274 0 -274 0 44 -22 45 -23 28 -54 27 -55 0
-413 0 -413 -541 0 -540 0 3 418 3 417 21 40 22 40 18 16 19 16 30 16 30 16
-269 1 -269 0 44 -23z"/>
<path d="M5995 6214 l30 -17 19 -16 18 -16 22 -40 21 -40 3 -859 3 -859 -16
-52 -15 -52 -21 -27 -21 -26 -36 -20 -37 -19 270 0 270 0 -36 19 -37 19 -25
31 -26 31 -11 37 -10 37 0 379 0 378 103 -4 102 -4 50 -23 50 -22 33 -32 33
-32 29 -45 28 -45 121 -282 120 -281 24 -39 25 -39 36 -31 35 -32 38 -10 38
-11 155 0 155 1 -51 25 -51 24 -50 53 -49 52 -27 45 -26 45 -101 240 -102 240
-24 47 -24 47 -32 36 -31 36 -50 26 -50 25 -53 5 -53 6 5 8 5 9 15 0 16 0 74
30 74 29 58 37 57 36 54 51 53 52 40 60 39 59 22 71 21 70 -1 105 0 105 -21
58 -21 59 -36 48 -36 49 -47 34 -47 35 -53 26 -54 27 -76 22 -77 21 -430 3
-430 3 30 -16z m733 -48 l52 -14 43 -25 42 -25 52 -54 51 -55 26 -51 26 -52
15 -62 15 -63 0 -65 0 -65 -15 -70 -15 -70 -35 -73 -36 -72 -49 -49 -49 -49
-54 -31 -55 -31 -78 -20 -77 -20 -114 0 -113 0 0 521 0 522 158 -6 157 -6 53
-15z"/>
<path d="M9785 6207 l39 -22 22 -33 22 -33 11 -50 11 -50 0 -823 0 -822 -15
-52 -15 -51 -25 -29 -25 -30 -42 -20 -43 -21 190 0 190 0 -40 18 -41 18 -31
37 -32 36 -11 39 -10 39 2 817 3 817 690 -922 690 -922 5 963 5 964 22 40 21
40 25 23 25 24 39 13 38 14 -195 0 -195 -1 30 -10 30 -11 31 -23 32 -23 21
-44 21 -44 -2 -726 -3 -727 -602 805 -602 805 -163 0 -163 0 40 -23z"/>
<path d="M16296 5355 l-58 -15 -52 -26 -51 -26 -53 -39 -52 -40 -41 -51 -41
-52 -24 -49 -25 -49 -20 -76 -19 -75 0 -116 0 -116 15 -64 16 -65 32 -65 32
-66 60 -61 60 -61 62 -32 63 -31 62 -15 63 -15 95 0 95 0 69 15 70 15 43 16
43 17 0 74 0 75 -12 -5 -13 -6 -62 -26 -62 -25 -80 -12 -80 -11 -66 11 -65 11
-55 25 -55 25 -49 49 -49 49 -26 52 -26 51 -15 62 -15 63 0 70 0 70 15 68 14
67 32 60 32 59 53 51 54 51 54 25 53 24 59 11 59 11 71 -7 70 -6 65 -23 64
-24 18 -7 17 -7 0 80 0 79 -57 18 -58 17 -135 4 -135 3 -59 -14z"/>
<path d="M19783 5355 l-53 -15 -40 -20 -39 -20 -36 -31 -36 -32 -27 -46 -27
-46 0 -90 0 -90 22 -41 22 -41 54 -49 53 -49 133 -69 133 -69 45 -30 45 -30
25 -38 25 -38 0 -49 0 -49 -15 -29 -15 -29 -19 -17 -19 -17 -35 -15 -35 -15
-59 -6 -60 -7 -78 17 -77 16 -46 20 -46 19 -29 21 -29 20 0 -89 0 -90 43 -17
42 -17 73 -14 74 -14 76 0 77 0 68 15 68 14 50 28 51 27 24 29 25 30 21 41 21
41 5 65 4 65 -11 41 -11 40 -31 47 -31 46 -57 44 -57 43 -143 74 -142 74 -34
37 -34 38 -10 38 -11 39 10 33 9 33 17 25 16 25 51 24 52 23 56 7 57 6 68 -11
69 -12 54 -25 53 -24 5 0 4 0 -3 82 -3 83 -40 14 -40 14 -135 3 -135 4 -52
-15z"/>
<path d="M16970 4761 l0 -591 75 0 75 0 0 250 0 250 63 0 62 0 39 -11 39 -11
46 -43 46 -43 115 -196 115 -195 88 -1 87 0 0 6 0 6 -132 212 -131 211 -29 37
-29 38 -29 17 -29 17 70 33 69 34 39 49 39 50 14 37 13 38 0 85 0 85 -28 57
-28 57 -32 27 -32 27 -55 26 -55 26 -242 3 -243 4 0 -591z m411 448 l51 -11
38 -34 38 -34 12 -30 12 -30 -4 -65 -4 -65 -30 -42 -29 -42 -50 -25 -49 -26
-123 -4 -123 -3 0 211 0 211 105 0 104 0 52 -11z"/>
<path d="M17960 4943 l0 -408 15 -70 15 -70 25 -52 26 -52 50 -45 50 -45 57
-22 57 -22 101 -5 102 -5 75 17 76 17 53 35 53 35 34 45 34 44 26 68 26 67 3
438 3 437 -70 0 -69 0 -4 -412 -5 -413 -16 -51 -17 -51 -31 -42 -30 -43 -57
-26 -57 -26 -80 0 -80 0 -53 23 -53 24 -34 40 -34 39 -18 47 -17 46 -4 423 -3
422 -75 0 -74 0 0 -407z"/>
<path d="M19130 4760 l0 -590 70 0 70 0 0 590 0 590 -70 0 -70 0 0 -590z"/>
<path d="M20460 4760 l0 -590 320 0 320 0 0 65 0 65 -245 0 -245 0 0 200 0
200 215 0 215 0 0 70 0 70 -215 0 -215 0 0 190 0 190 230 0 230 0 0 65 0 65
-305 0 -305 0 0 -590z"/>
<path d="M4440 3145 l0 -215 30 0 30 0 0 95 0 95 105 0 105 0 0 -95 0 -95 30
0 30 0 0 215 0 215 -30 0 -30 0 0 -95 0 -95 -105 0 -105 0 0 95 0 95 -30 0
-30 0 0 -215z"/>
<path d="M5215 3343 l-7 -18 -74 -193 -74 -193 0 -5 0 -4 33 0 32 0 20 58 20
57 84 0 83 0 22 -55 22 -55 32 -3 32 -3 0 8 0 8 -79 205 -79 205 -30 3 -29 3
-8 -18z m64 -150 l24 -68 5 -12 4 -13 -61 0 -61 0 0 7 0 6 27 74 28 73 5 0 5
0 24 -67z"/>
<path d="M6140 3145 l0 -215 110 0 110 0 0 25 0 25 -85 0 -85 0 0 190 0 190
-25 0 -25 0 0 -215z"/>
<path d="M6708 3340 l-36 -20 -20 -27 -19 -28 -11 -34 -12 -34 0 -61 0 -61 19
-40 18 -40 24 -22 24 -22 37 -16 37 -15 41 0 41 0 37 15 37 16 24 22 24 22 18
40 19 40 0 70 0 70 -19 40 -18 40 -24 22 -24 22 -28 10 -28 11 -62 0 -62 -1
-37 -19z m173 -53 l34 -22 17 -35 18 -35 0 -50 0 -50 -19 -42 -19 -42 -31 -15
-30 -16 -45 0 -44 0 -33 27 -32 27 -13 33 -14 32 0 44 0 43 23 44 22 44 35 18
35 18 31 0 31 0 34 -23z"/>
<path d="M7320 3145 l0 -215 30 0 30 0 2 167 3 167 106 -164 106 -165 37 -3
36 -3 0 215 0 216 -30 0 -30 0 -2 -164 -3 -164 -104 164 -104 164 -39 0 -38 0
0 -215z"/>
<path d="M8098 3340 l-36 -20 -31 -37 -30 -37 -11 -53 -12 -54 7 -42 7 -42 19
-37 19 -38 39 -26 39 -25 54 -6 54 -5 57 16 57 17 0 104 0 105 -75 0 -75 0 0
-30 0 -30 45 0 45 0 0 -54 0 -54 -16 -6 -16 -6 -46 0 -47 0 -32 20 -32 19 -16
32 -17 31 0 53 -1 54 20 38 20 38 39 22 39 23 35 -1 35 0 40 -14 40 -15 3 0 2
0 0 34 0 34 -22 6 -23 6 -70 -1 -70 0 -37 -19z"/>
<path d="M9060 3145 l0 -215 86 0 86 0 33 16 32 15 18 33 18 33 -6 44 -6 44
-21 17 -20 16 -13 6 -12 6 13 6 12 6 15 28 15 29 0 28 0 29 -16 23 -17 23 -33
14 -33 14 -76 0 -75 0 0 -215z m170 135 l20 -20 0 -14 0 -13 -21 -27 -20 -26
-45 0 -44 0 0 60 0 60 45 0 45 0 20 -20z m15 -185 l25 -24 0 -16 0 -16 -10
-19 -10 -18 -31 -11 -32 -11 -33 0 -34 0 0 70 0 70 50 0 51 0 24 -25z"/>
<path d="M9756 3351 l-6 -8 -75 -196 -75 -197 0 -10 0 -11 32 3 31 3 20 58 19
57 83 0 83 0 22 -60 22 -60 35 0 35 0 -4 8 -3 9 -79 206 -80 207 -27 0 -28 0
-5 -9z m63 -169 l30 -82 -64 0 -65 0 19 48 18 47 13 38 12 38 3 -3 4 -4 30
-82z"/>
<path d="M10170 3354 l0 -6 70 -132 70 -133 0 -76 0 -77 30 0 30 0 0 81 0 80
65 123 65 123 0 11 0 12 -27 0 -28 0 -54 -102 -54 -102 -51 102 -51 102 -32 0
-33 0 0 -6z"/>
<path d="M12940 3145 l0 -215 110 0 110 0 0 25 0 25 -80 0 -80 0 0 190 0 190
-30 0 -30 0 0 -215z"/>
<path d="M13580 3338 l-10 -23 -70 -184 -70 -183 0 -10 0 -9 31 3 32 3 20 58
21 57 82 0 83 0 22 -60 22 -60 34 0 35 0 -7 18 -7 17 -75 198 -76 197 -29 0
-28 0 -10 -22z m69 -153 l31 -80 0 -2 0 -3 -64 0 -63 0 30 85 31 84 2 -2 3 -2
30 -80z"/>
<path d="M14100 3146 l0 -216 30 0 30 0 2 164 3 163 105 -163 105 -164 38 0
37 0 0 215 0 215 -30 0 -30 0 0 -172 0 -171 -108 169 -108 169 -37 3 -37 3 0
-215z"/>
<path d="M15190 3145 l0 -215 30 0 30 0 0 95 0 95 100 0 100 0 0 -95 0 -95 30
0 30 0 0 215 0 215 -30 0 -30 0 0 -95 0 -95 -100 0 -100 0 0 95 0 95 -30 0
-30 0 0 -215z"/>
<path d="M15901 3193 l-65 -168 -18 -47 -18 -48 34 0 33 0 22 60 22 60 83 0
82 0 21 -57 20 -58 37 -3 37 -3 -14 33 -14 33 -69 182 -69 183 -30 0 -30 0
-64 -167z m96 -91 l-59 -3 -4 4 -3 3 31 83 31 83 32 -84 31 -83 -59 -3z"/>
<path d="M16880 3145 l0 -215 88 0 87 0 33 20 33 20 15 37 16 36 -7 33 -6 33
-31 26 -31 26 23 24 23 25 0 44 0 45 -14 17 -14 17 -32 14 -32 13 -76 0 -75 0
0 -215z m161 145 l19 -11 0 -34 0 -34 -22 -15 -22 -16 -38 0 -38 0 0 60 0 60
41 0 40 0 20 -10z m17 -186 l22 -15 0 -33 0 -33 -20 -18 -20 -18 -50 -5 -50
-5 0 72 0 71 48 0 48 0 22 -16z"/>
<path d="M17498 3163 l-76 -198 -7 -17 -7 -18 35 0 35 0 19 58 20 57 84 3 84
3 21 -58 20 -58 32 -3 32 -3 -1 13 0 13 -78 200 -77 200 -30 3 -31 3 -75 -198z
m162 -55 l0 -8 -60 0 -60 0 0 4 0 4 25 68 26 69 5 15 6 15 29 -79 29 -80 0 -8z"/>
<path d="M17990 3355 l0 -5 65 -130 65 -130 0 -80 0 -80 30 0 30 0 0 73 0 74
70 134 70 134 0 8 0 8 -31 -3 -31 -3 -51 -100 -52 -100 -49 102 -50 103 -33 0
-33 0 0 -5z"/>
<path d="M11816 3157 l-18 -13 4 -34 3 -35 27 -9 27 -10 21 19 20 18 0 23 0
23 -22 15 -22 16 -11 0 -11 0 -18 -13z"/>
<path d="M1890 3115 l0 -25 905 0 905 0 0 25 0 25 -905 0 -905 0 0 -25z"/>
<path d="M19290 3115 l0 -25 900 0 900 0 0 25 0 25 -900 0 -900 0 0 -25z"/>
</g>
</svg>
